<?xml version="1.0" encoding="UTF-8" standalone="no"?>
<!-- Created with Inkscape (http://www.inkscape.org/) -->

<svg
   width="585.09662mm"
   height="419.36325mm"
   viewBox="0 0 585.09662 419.36326"
   version="1.1"
   id="svg1"
   inkscape:version="1.4.3 (0d15f750, 2025-12-25)"
   sodipodi:docname="عليم.svg"
   xmlns:inkscape="http://www.inkscape.org/namespaces/inkscape"
   xmlns:sodipodi="http://sodipodi.sourceforge.net/DTD/sodipodi-0.dtd"
   xmlns="http://www.w3.org/2000/svg"
   xmlns:svg="http://www.w3.org/2000/svg">
  <sodipodi:namedview
     id="namedview1"
     pagecolor="#ffffff"
     bordercolor="#000000"
     borderopacity="0.25"
     inkscape:showpageshadow="2"
     inkscape:pageopacity="0.0"
     inkscape:pagecheckerboard="0"
     inkscape:deskcolor="#d1d1d1"
     inkscape:document-units="mm"
     inkscape:zoom="0.24885803"
     inkscape:cx="528.41373"
     inkscape:cy="972.442"
     inkscape:window-width="1440"
     inkscape:window-height="769"
     inkscape:window-x="0"
     inkscape:window-y="25"
     inkscape:window-maximized="0"
     inkscape:current-layer="path13" />
  <defs
     id="defs1">
    <inkscape:path-effect
       effect="fillet_chamfer"
       id="path-effect3"
       is_visible="true"
       lpeversion="1"
       nodesatellites_param="F,0,0,1,0,0.49999999,0,1 @ F,0,0,1,0,0.49999999,0,1 @ F,0,0,1,0,0.49999999,0,1 @ F,0,0,1,0,0.49999999,0,1 @ F,0,0,1,0,0.49999999,0,1 @ F,0,0,1,0,0.49999999,0,1 @ F,0,0,1,0,0.49999999,0,1 @ F,0,0,1,0,0.49999999,0,1 @ F,0,0,1,0,0.49999999,0,1 @ F,0,0,1,0,0.49999999,0,1 @ F,0,0,1,0,0.49999999,0,1 @ F,0,0,1,0,0.49999999,0,1 @ F,0,0,1,0,0.49999999,0,1 @ F,0,0,1,0,0.49999999,0,1 @ F,0,0,1,0,0.49999999,0,1 @ F,0,0,1,0,0.49999999,0,1 @ F,0,0,1,0,0.49999999,0,1 @ F,0,0,1,0,0.49999999,0,1 @ F,0,0,1,0,0.49999999,0,1 @ F,0,0,1,0,0.49999999,0,1 @ F,0,0,1,0,0.49999999,0,1 @ F,0,0,1,0,0.49999999,0,1 @ F,0,0,1,0,0.49999999,0,1 @ F,0,0,1,0,0.49999999,0,1 | F,0,0,1,0,0.49999999,0,1 @ F,0,0,1,0,0.49999999,0,1 @ F,0,0,1,0,0.49999999,0,1 @ F,0,0,1,0,0.49999999,0,1 | F,0,0,1,0,0.49999999,0,1 @ F,0,0,1,0,0.49999999,0,1 @ F,0,0,1,0,0.49999999,0,1 @ F,0,0,1,0,0.49999999,0,1"
       radius="0.5"
       unit="px"
       method="auto"
       mode="F"
       chamfer_steps="1"
       flexible="false"
       use_knot_distance="false"
       apply_no_radius="true"
       apply_with_radius="true"
       only_selected="false"
       hide_knots="false" />
    <inkscape:path-effect
       effect="fillet_chamfer"
       id="path-effect2"
       is_visible="true"
       lpeversion="1"
       nodesatellites_param="F,0,0,1,0,0.99999999,0,1 @ F,0,0,1,0,0.99999999,0,1 @ F,0,0,1,0,0.99999999,0,1 @ F,0,0,1,0,0.99999999,0,1 @ F,0,0,1,0,0.99999999,0,1 @ F,0,0,1,0,0.99999999,0,1 @ F,0,0,1,0,0.99999999,0,1 @ F,0,0,1,0,0.99999999,0,1 @ F,0,0,1,0,0.99999999,0,1 @ F,0,0,1,0,0.99999999,0,1 @ F,0,0,1,0,0.99999999,0,1 @ F,0,0,1,0,0.99999999,0,1 @ F,0,0,1,0,0.99999999,0,1 @ F,0,0,1,0,0.99999999,0,1 @ F,0,0,1,0,0.99999999,0,1 @ F,0,0,1,0,0.99999999,0,1 @ F,0,0,1,0,0.99999999,0,1 @ F,0,0,1,0,0.99999999,0,1 @ F,0,0,1,0,0.99999999,0,1 @ F,0,0,1,0,0.99999999,0,1 @ F,0,0,1,0,0.99999999,0,1 @ F,0,0,1,0,0.99999999,0,1 @ F,0,0,1,0,0.99999999,0,1 @ F,0,0,1,0,0.99999999,0,1 | F,0,0,1,0,0.99999999,0,1 @ F,0,0,1,0,0.99999999,0,1 @ F,0,0,1,0,0.99999999,0,1 @ F,0,0,1,0,0.99999999,0,1 | F,0,0,1,0,0.99999999,0,1 @ F,0,0,1,0,0.99999999,0,1 @ F,0,0,1,0,0.99999999,0,1 @ F,0,0,1,0,0.99999999,0,1"
       radius="1"
       unit="px"
       method="auto"
       mode="F"
       chamfer_steps="1"
       flexible="false"
       use_knot_distance="true"
       apply_no_radius="true"
       apply_with_radius="true"
       only_selected="false"
       hide_knots="false" />
    <inkscape:path-effect
       effect="fillet_chamfer"
       id="path-effect1"
       is_visible="true"
       lpeversion="1"
       nodesatellites_param="F,0,0,1,0,0.99999999,0,1 @ F,0,0,1,0,0.99999999,0,1 @ F,0,0,1,0,0.99999999,0,1 @ F,0,0,1,0,0.99999999,0,1 @ F,0,0,1,0,0.99999999,0,1 @ F,0,0,1,0,0.99999999,0,1 @ F,0,0,1,0,0.99999999,0,1 @ F,0,0,1,0,0.99999999,0,1 @ F,0,0,1,0,0.99999999,0,1 @ F,0,0,1,0,0.99999999,0,1 @ F,0,0,1,0,0.99999999,0,1 @ F,0,0,1,0,0.99999999,0,1 @ F,0,0,1,0,0.99999999,0,1 @ F,0,0,1,0,0.99999999,0,1 @ F,0,0,1,0,0.99999999,0,1 @ F,0,0,1,0,0.99999999,0,1 @ F,0,0,1,0,0.99999999,0,1 @ F,0,0,1,0,0.99999999,0,1 @ F,0,0,1,0,0.99999999,0,1 @ F,0,0,1,0,0.99999999,0,1 @ F,0,0,1,0,0.99999999,0,1 @ F,0,0,1,0,0.99999999,0,1 @ F,0,0,1,0,0.99999999,0,1 @ F,0,0,1,0,0.99999999,0,1 | F,0,0,1,0,0.99999999,0,1 @ F,0,0,1,0,0.99999999,0,1 @ F,0,0,1,0,0.99999999,0,1 @ F,0,0,1,0,0.99999999,0,1 | F,0,0,1,0,0.99999999,0,1 @ F,0,0,1,0,0.99999999,0,1 @ F,0,0,1,0,0.99999999,0,1 @ F,0,0,1,0,0.99999999,0,1"
       radius="1"
       unit="px"
       method="auto"
       mode="F"
       chamfer_steps="1"
       flexible="false"
       use_knot_distance="false"
       apply_no_radius="true"
       apply_with_radius="true"
       only_selected="false"
       hide_knots="false" />
    <rect
       x="182.78772"
       y="412.44409"
       width="528.05341"
       height="463.9996"
       id="rect1" />
  </defs>
  <g
     inkscape:label="Layer 1"
     inkscape:groupmode="layer"
     id="layer1"
     transform="translate(245.97083,72.479783)">
    <g
       id="g13">
      <g
         id="text1"
         style="opacity:1;stroke-width:2.24712305;stroke-dasharray:none"
         transform="matrix(19.965971,0,0,19.965971,-4405.7561,-9573.8643)">
        <g
           id="path13"
           style="opacity:1">
          <path
             style="font-weight:bold;font-size:192px;font-family:'AA-RAHMA Thin';-inkscape-font-specification:'AA-RAHMA Thin,  Bold';baseline-shift:baseline;white-space:pre;display:inline;overflow:visible;vector-effect:none;fill:#ffffff;stroke-linejoin:round;paint-order:stroke markers fill;enable-background:accumulate;stop-color:#000000;stop-opacity:1"
             d="m 210.18555,476.31055 c -0.88336,0 -1.62305,0.73968 -1.62305,1.62304 v 17 c 0,0.88336 0.73969,1.62305 1.62305,1.62305 h 2.45703 c 0.41609,0 0.786,-0.18706 1.07617,-0.45312 0.29017,0.26606 0.66008,0.45312 1.07617,0.45312 h 2.45703 c 0.41765,0 0.78954,-0.18726 1.08008,-0.45508 0.2907,0.26855 0.66375,0.45508 1.08203,0.45508 h 16.07227 c 0.88336,0 1.62305,-0.73969 1.62304,-1.62305 v -2.43554 c 10e-6,-0.46599 -0.21865,-0.87126 -0.54296,-1.16993 0.32399,-0.29864 0.54297,-0.70225 0.54296,-1.16796 v -12.22657 c 10e-6,-0.88336 -0.73968,-1.62304 -1.62304,-1.62304 h -6.99414 c -0.40239,0 -0.75447,0.18675 -1.04102,0.4375 -0.28654,-0.25075 -0.63863,-0.4375 -1.04101,-0.4375 h -2.45704 c -0.40238,0 -0.75447,0.18675 -1.04101,0.4375 -0.28654,-0.25075 -0.63863,-0.4375 -1.04102,-0.4375 z m 0.625,2.24804 h 10.4375 v 12.93946 c 0,0.88336 0.73968,1.625 1.62304,1.625 h 0.082 c 0.88336,0 1.62305,-0.74164 1.62305,-1.625 v -12.93946 h 1.21094 v 12.93946 c 0,0.88336 0.73969,1.625 1.62305,1.625 h 0.082 c 0.88336,0 1.62304,-0.74164 1.62304,-1.625 v -12.93946 h 5.74805 v 10.97852 h -1.21094 v -2.9375 c 0,-0.88336 -0.73968,-1.62305 -1.62304,-1.62305 h -0.082 c -0.88336,0 -1.62305,0.73969 -1.62305,1.62305 v 4.89844 c 0,0.88336 0.73969,1.625 1.62305,1.625 h 2.91601 v 1.1875 h -14.82617 v -12.91993 c 0,-0.88335 -0.73969,-1.62304 -1.62305,-1.62304 h -0.16015 c -0.88336,0 -1.62305,0.73969 -1.62305,1.62304 v 3.58594 h -2.98828 c -0.88336,0 -1.62305,0.73969 -1.62305,1.62305 v 7.71094 h -1.20898 z m 4.60742,9.76953 h 1.21094 v 1.20899 h -1.21094 z m 0,4.79493 h 1.21094 v 1.1875 h -1.21094 z"
             id="path3" />
          <path
             style="font-weight:bold;font-size:192px;font-family:'AA-RAHMA Thin';-inkscape-font-specification:'AA-RAHMA Thin,  Bold';baseline-shift:baseline;white-space:pre;display:inline;overflow:visible;vector-effect:none;fill:#0041ff;stroke-linejoin:round;paint-order:stroke markers fill;enable-background:accumulate;stop-color:#000000;stop-opacity:1;fill-opacity:1"
             d="m 223.45344,477.93412 v 13.56487 a 0.49999999,0.49999999 0 0 1 -0.5,0.5 h -0.0819 a 0.49999999,0.49999999 0 0 1 -0.5,-0.5 v -13.56487 a 0.49999999,0.49999999 0 0 0 -0.5,-0.5 h -11.68548 a 0.49999999,0.49999999 0 0 0 -0.5,0.5 v 16.99922 a 0.49999999,0.49999999 0 0 0 0.5,0.5 h 2.45703 a 0.49999999,0.49999999 0 0 0 0.5,-0.5 v -8.33284 a 0.49999999,0.49999999 0 0 1 0.5,-0.5 h 3.61079 a 0.49999999,0.49999999 0 0 0 0.5,-0.5 v -4.20935 a 0.49999999,0.49999999 0 0 1 0.5,-0.5 h 0.16063 a 0.49999999,0.49999999 0 0 1 0.5,0.5 v 13.54219 a 0.49999999,0.49999999 0 0 0 0.5,0.5 h 16.07166 a 0.49999999,0.49999999 0 0 0 0.5,-0.5 v -2.43435 a 0.49999999,0.49999999 0 0 0 -0.5,-0.5 h -3.53864 a 0.49999999,0.49999999 0 0 1 -0.5,-0.5 v -4.89849 a 0.49999999,0.49999999 0 0 1 0.5,-0.5 h 0.0816 a 0.49999999,0.49999999 0 0 1 0.5,0.5 v 3.55963 a 0.49999999,0.49999999 0 0 0 0.5,0.5 h 2.45703 a 0.49999999,0.49999999 0 0 0 0.5,-0.5 v -12.22601 a 0.49999999,0.49999999 0 0 0 -0.5,-0.5 h -6.99372 a 0.49999999,0.49999999 0 0 0 -0.5,0.5 v 13.56487 a 0.49999999,0.49999999 0 0 1 -0.5,0.5 h -0.0819 a 0.49999999,0.49999999 0 0 1 -0.5,-0.5 v -13.56487 a 0.49999999,0.49999999 0 0 0 -0.5,-0.5 h -2.45704 a 0.49999999,0.49999999 0 0 0 -0.5,0.5 z m -9.15867,9.77093 v 2.45508 a 0.49999999,0.49999999 0 0 0 0.5,0.5 h 2.45703 a 0.49999999,0.49999999 0 0 0 0.5,-0.5 v -2.45508 a 0.49999999,0.49999999 0 0 0 -0.5,-0.5 h -2.45703 a 0.49999999,0.49999999 0 0 0 -0.5,0.5 z m 0,4.79394 v 2.43435 a 0.49999999,0.49999999 0 0 0 0.5,0.5 h 2.45703 a 0.49999999,0.49999999 0 0 0 0.5,-0.5 v -2.43435 a 0.49999999,0.49999999 0 0 0 -0.5,-0.5 h -2.45703 a 0.49999999,0.49999999 0 0 0 -0.5,0.5 z"
             id="path4" />
        </g>
      </g>
    </g>
  </g>
</svg>
